<?xml version="1.0" encoding="UTF-8"?>
<svg id="Illustration" xmlns="http://www.w3.org/2000/svg" xmlns:xlink="http://www.w3.org/1999/xlink" viewBox="0 0 761.3374 497.7975">
  <defs>
    <style>
      .cls-1 {
        opacity: .06;
      }

      .cls-2 {
        fill: url(#Naamloos_verloop_27-5);
      }

      .cls-2, .cls-3, .cls-4 {
        opacity: .23;
      }

      .cls-3 {
        fill: url(#Naamloos_verloop_27-6);
      }

      .cls-4 {
        fill: url(#Naamloos_verloop_27-7);
      }

      .cls-5 {
        fill: #f7f0e7;
      }

      .cls-6 {
        fill: #f9f5e8;
      }

      .cls-7 {
        fill: #fff;
      }

      .cls-8 {
        fill: #e20613;
      }

      .cls-9 {
        fill: #9b9997;
      }

      .cls-10 {
        fill: url(#Naamloos_verloop_27-4);
      }

      .cls-11 {
        fill: url(#Naamloos_verloop_27-3);
      }

      .cls-12 {
        fill: url(#Naamloos_verloop_27-2);
      }

      .cls-13 {
        font-family: Poppins-Black, Poppins;
        font-size: 20.0044px;
      }

      .cls-14 {
        fill: none;
        stroke: #000;
        stroke-miterlimit: 10;
      }

      .cls-15 {
        fill: url(#Naamloos_verloop_44);
      }

      .cls-16 {
        fill: url(#Naamloos_verloop_27);
      }
    </style>
    <linearGradient id="Naamloos_verloop_27" data-name="Naamloos verloop 27" x1="252.903" y1="-136.4569" x2="462.7998" y2="713.205" gradientTransform="matrix(1, 0, 0, 1, 0, 0)" gradientUnits="userSpaceOnUse">
      <stop offset="0" stop-color="#fff"/>
      <stop offset="1" stop-color="#000"/>
    </linearGradient>
    <linearGradient id="Naamloos_verloop_27-2" data-name="Naamloos verloop 27" x1="334.2775" y1="477.8207" x2="333.7504" y2="397.6994" xlink:href="#Naamloos_verloop_27"/>
    <linearGradient id="Naamloos_verloop_27-3" data-name="Naamloos verloop 27" x1="333.5992" y1="492.2777" x2="335.2918" y2="121.6003" xlink:href="#Naamloos_verloop_27"/>
    <linearGradient id="Naamloos_verloop_27-4" data-name="Naamloos verloop 27" x1="337.5903" y1="492.2959" x2="339.2828" y2="121.6185" xlink:href="#Naamloos_verloop_27"/>
    <linearGradient id="Naamloos_verloop_27-5" data-name="Naamloos verloop 27" x1="603.4481" y1="366.1161" x2="659.4921" y2="366.1161" xlink:href="#Naamloos_verloop_27"/>
    <radialGradient id="Naamloos_verloop_44" data-name="Naamloos verloop 44" cx="633.04" cy="346.2066" fx="647.8247" fy="327.3134" r="44.4129" gradientTransform="translate(29.5368 84.6635) scale(.9496 .7775)" gradientUnits="userSpaceOnUse">
      <stop offset="0" stop-color="#dcc7ae"/>
      <stop offset="1" stop-color="#ad9269"/>
    </radialGradient>
    <linearGradient id="Naamloos_verloop_27-6" data-name="Naamloos verloop 27" x1="630.0247" y1="448.8802" x2="632.0529" y2="4.6848" xlink:href="#Naamloos_verloop_27"/>
    <linearGradient id="Naamloos_verloop_27-7" data-name="Naamloos verloop 27" x1="580.0934" y1="269.3925" x2="674.2063" y2="269.3925" gradientTransform="translate(32.2002 7.2694) scale(.9545 .9697)" xlink:href="#Naamloos_verloop_27"/>
  </defs>
  <g id="Int_media" data-name="Int media">
    <rect class="cls-16" x="135.7542" y="55.6416" width="400.4048" height="288.2044" rx="27.8147" ry="27.8147"/>
    <path class="cls-12" d="M116.9511,417.1852v19.2575s0,9.9467,18.8031,9.6517c13.3709-.2098,400.4048,0,400.4048,0,0,0,14.7739-.8923,14.7739-10.1646v-18.7446H116.9511Z"/>
    <path class="cls-11" d="M532.2542,434.3802H134.9582c-10.316,0-18.0072-7.6985-18.0072-17.195l18.8031-56.6405c0-9.4965,8.3627-17.195,18.6787-17.195h363.0474c10.316,0,18.6787,7.6985,18.6787,17.195l14.7739,56.6405c0,9.4965-8.3627,17.195-18.6787,17.195Z"/>
    <rect class="cls-7" x="147.9668" y="68.4901" width="373.6197" height="259.3971"/>
    <rect class="cls-7" x="147.9668" y="68.4901" width="373.6197" height="259.3971"/>
    <path class="cls-10" d="M522.1054,343.8819c-1.4792-.3469-3.0286-.5322-4.6252-.5322H154.4329s264.3934,1.2477,367.6725,.5322Z"/>
    <path class="cls-1" d="M522.1054,343.8819c-103.2791,.7155-367.6725-.5322-367.6725-.5322l50.5329,74.4771,345.9671-.6417-14.7739-56.6405c0-8.0268-5.9749-14.7681-14.0536-16.6628Z"/>
    <text class="cls-13" transform="translate(182.2941 124.0894) rotate(.4685)"><tspan x="0" y="0">&lt;html&gt;</tspan><tspan x="0" y="24.0054">&lt;head&gt;&lt;/head&gt;</tspan><tspan x="0" y="48.0107">&lt;body&gt;&lt;/body&gt;</tspan><tspan x="0" y="72.0161">&lt;/html&gt;</tspan></text>
    <path d="M404.1958,431.643H251.1615c-3.0782,0-5.5735-2.4953-5.5735-5.5735l6.0115-23.1908c0-3.0782,2.4953-5.5735,5.5735-5.5735h141.7628c3.0782,0,5.5735,2.4953,5.5735,5.5735l5.26,23.1908c0,3.0782-2.4953,5.5735-5.5735,5.5735Z"/>
    <rect class="cls-8" x="485.4122" y="78.0826" width="4.0357" height="8.6345"/>
    <rect class="cls-14" x="485.4122" y="78.0826" width="17.269" height="8.6345"/>
    <rect x="503.2443" y="80.3351" width="1.8771" height="4.1295"/>
  </g>
  <g id="Laag_3" data-name="Laag 3">
    <ellipse class="cls-2" cx="631.4701" cy="366.1161" rx="28.022" ry="11.0186"/>
    <path class="cls-15" d="M595.1944,337.9708c1.4259,11.3841,7.1297,32.3033,35.6488,32.3521,28.5191,.0488,34.5794-26.806,35.2923-32.9359-32.7969,14.3031-70.9411,.5838-70.9411,.5838Z"/>
    <path class="cls-6" d="M666.1355,337.1401c.5069-4.5232,2.8718-44.1819,4.1969-61.7898-48.045,13.3874-79.2125-.6162-79.2125-.6162,1.046,16.3979,3.0496,54.5194,4.0745,63.0119,0,0,38.1442,14.2394,70.9411-.606Z"/>
    <path class="cls-3" d="M672.9119,370.3229s-3.568,10.2654-42.0687,10.2654-42.0687-10.2654-42.0687-10.2654l-2.8488-100.7057s4.2853,12.8925,44.9175,12.8925,44.9175-12.8925,44.9175-12.8925l-2.8488,100.7057Z"/>
    <path class="cls-4" d="M590.4543,274.4451h-.0064l.0122,.1917c7.2954,4.6611,22.635,7.8728,40.383,7.8728s33.0838-3.2109,40.3803-7.8711l.015-.1934h-.0064c2.3268-1.6021,3.5028-3.0598,4.0649-3.945,.3001-.654,.4638-1.3218,.4638-2.0018,0-7.7382-20.1103-14.0112-44.9175-14.0112s-44.9175,6.273-44.9175,14.0112c0,.6799,.1637,1.3477,.4638,2.0018,.5621,.8852,1.7381,2.3429,4.0649,3.945Z"/>
    <path class="cls-5" d="M592.3447,276.7284s-4.0307-3.4833,0-5.3693,3.0284-2.829,7.2882-3.772,7.7678-1.2573,11.2758-1.1002,5.0115-1.1002,8.2689-1.5717,5.7632-.4715,8.0184,0,4.5232-2.5589,9.0271-1.751,5.7568,2.0653,10.5177,2.8511,7.7678-.7858,11.2758-.1572,6.5149,.7875,7.0161,2.6727,3.7586,2.0423,4.2598,2.8282,3.353,2.4959,1.0578,3.9326-12.8348,6.9119-37.6416,7.2263-36.5603-2.9574-40.3639-5.7896Z"/>
    <path class="cls-9" d="M642.2376,276.4916l13.7964-52.6517s6.7151-2.2805,11.1015,2.8156l-20.3929,50.9623s-.8447-1.6894-4.505-1.1262Z"/>
  </g>
</svg>