<?xml version="1.0" encoding="UTF-8"?>
<svg id="Laag_1" data-name="Laag 1" xmlns="http://www.w3.org/2000/svg" viewBox="0 0 443 260">
  <defs>
    <style>
      .cls-1, .cls-2 {
        fill: #e02f2f;
      }

      .cls-2 {
        font-family: LibreBaskerville-Bold, 'Libre Baskerville';
        font-size: 25.1692px;
      }

      .cls-3 {
        fill: none;
        stroke: #e02f2f;
        stroke-miterlimit: 10;
      }

      .cls-4 {
        font-family: Poppins-Bold, Poppins;
        font-size: 21px;
      }
    </style>
  </defs>
  <text class="cls-4" transform="translate(18.4443 63.5928)"><tspan x="0" y="0">Start</tspan></text>
  <text class="cls-2" transform="translate(348.3047 209.8213)"><tspan x="0" y="0">Goal</tspan></text>
  <path class="cls-3" d="M382.5898,184c.9725-2.8221-9.0898-71.5-77.0898-75.5-58.6605-3.4506-37.8781,53.3366-9,62,30,9,42.943-10.7184,40-22-6-23-28-24-45.3293-13.4157-13.2727,8.1066-20.8237,18.3991-47.6707,37.4157-24,17-42.8573,5.2568-48-4-5-9-4.2376-38.6409,39-27,26,7,39.6959-8.4977,64-22,36-20,36-48,13-46-19.85,1.7261-6.7137,52.1774-47.2546,53.6756-40.5409,1.4981-47.8552-22.5059-51.7454-35.6756-3.8902-13.1696,2.5215-35.2793,31.0161-31.6706,28.9839,3.6706,35.0116,37.6275,3.8902,46.0936s-38.9017,0-65.1604-.9407-32.256,8.4259-34.7458,16.5177c-4,13,9.4479,20.5769,20,18,29.8423-7.2877,1.4624-52.7627-53-49-54.4624,3.7627-49,45-39.2691,60.3669,6.1246,9.6719,20.3036,23.0964,39.9094,16.2007,24.3597-8.5676,24.3597-39.5676-7.7803-58.3226-25.4158-14.8311-19.4509-42.3309,1.801-52.0754,21.2519-9.7445,47.7987,8.8038,30.2929,29.4989-17.5058,20.6951-50.5723,21.6358-70.9957,16.9324s-19.4509-23.5172-19.4509-23.5172"/>
  <circle class="cls-1" cx="49.5" cy="79.5" r="4"/>
  <polygon class="cls-1" points="384 186 387 173 382 177 376 176 384 186"/>
</svg>