<?xml version="1.0" encoding="UTF-8"?>
<svg id="Laag_1" data-name="Laag 1" xmlns="http://www.w3.org/2000/svg" viewBox="0 0 1920 423">
  <defs>
    <style>
      .cls-1, .cls-2, .cls-3 {
        fill: #d4f4f4;
      }

      .cls-2 {
        opacity: .5;
      }

      .cls-3 {
        opacity: .25;
      }
    </style>
  </defs>
  <path class="cls-3" d="M1920,361.3461s-256.5674,39.7235-499-74.9459C1056,113.7571,462.264,93.3273,143,252.9422,56,296.4376,0,361.3461,0,361.3461V0H1920V361.3461Z"/>
  <path class="cls-2" d="M1920,224.8376s-145.1923,64.2866-311,46.172c-196-21.4131-267-84.9832-451-138.516-236.2341-68.7297-437-53.5328-639-22.0823C308.1512,143.2395,0,286.4002,0,286.4002V0H1920V224.8376Z"/>
  <path class="cls-1" d="M1920,157.2525s-154,31.4505-245,28.7734c-305.9544-9.0006-474.9332-214.4116-916-121.7866C383,143.2001,0,73.6075,0,73.6075V0H1920V157.2525Z"/>
</svg>