<?xml version="1.0" encoding="utf-8"?>
<!-- Generator: Adobe Illustrator 25.1.0, SVG Export Plug-In . SVG Version: 6.00 Build 0)  -->
<svg version="1.1" id="Laag_1" xmlns="http://www.w3.org/2000/svg" xmlns:xlink="http://www.w3.org/1999/xlink" x="0px" y="0px"
	 viewBox="0 0 18.8 2" style="enable-background:new 0 0 18.8 2;" xml:space="preserve">
<style type="text/css">
	.st0{fill:none;}
	.st1{fill:#E20613;}
</style>
<path class="st0" d="M56,24.9h83"/>
<path class="st1" d="M18,0.7c-0.3-0.4-0.8-0.7-1.4-0.7h0c-0.9,0-1.5,0.7-1.5,0.7l0,0c0,0-0.4,0.5-1,0.5c-0.3,0-0.6-0.2-0.9-0.5
	C12.7,0.2,12.2,0,11.7,0c-0.8,0-1.4,0.7-1.5,0.7c0,0-0.4,0.4-0.9,0.4S8.6,0.8,8.5,0.7C8.5,0.7,7.9,0,7.1,0c-0.5,0-1,0.2-1.4,0.7
	C5.4,1.1,5,1.3,4.7,1.3c-0.5,0-1-0.5-1-0.5l0,0c0,0-0.7-0.7-1.5-0.7h0c-0.5,0-1,0.3-1.4,0.7C0.6,1,0.3,1.2,0,1.2v0.7
	c0.5,0,0.9-0.2,1.4-0.7C1.6,1,1.9,0.8,2.2,0.8h0c0.5,0,1,0.4,1,0.5C3.3,1.3,3.9,2,4.7,2c0.5,0,1-0.3,1.4-0.7
	c0.3-0.3,0.6-0.5,0.9-0.5C7.6,0.7,8,1.2,8,1.2l0,0c0,0,0.6,0.7,1.4,0.7s1.4-0.6,1.4-0.7l0,0c0,0,0.4-0.5,0.9-0.5
	c0.3,0,0.6,0.2,0.9,0.5C13.1,1.7,13.5,2,14.1,2c0.8,0,1.4-0.6,1.5-0.7c0,0,0.5-0.5,1-0.5h0c0.3,0,0.6,0.2,0.8,0.5
	c0.4,0.5,0.9,0.7,1.4,0.7V1.2C18.5,1.2,18.2,1,18,0.7z"/>
</svg>
