<?xml version="1.0" encoding="UTF-8"?>
<svg id="Laag_1" data-name="Laag 1" xmlns="http://www.w3.org/2000/svg" viewBox="0 0 728.5 203.847">
  <defs>
    <style>
      .cls-1 {
        fill: none;
      }

      .cls-2 {
        fill: #fff;
      }

      .cls-3 {
        fill: #f42eb0;
      }

      .cls-4 {
        fill: #130092;
      }
    </style>
  </defs>
  <rect class="cls-3" width="728.5" height="203.847"/>
  <g>
    <polygon class="cls-4" points="139.4 26.9969 126 89.9969 147 89.9969 155.9 47.9969 139.4 26.9969"/>
    <polygon class="cls-4" points="147 89.8969 147 89.9969 147 89.9969 133.6 152.9969 112.6 152.9969 129.1 173.9969 150.1 173.9969 162.6 115.0969 162.6 115.1969 168 89.8969 147 89.8969"/>
  </g>
  <path id="Path_102" data-name="Path 102" d="M88.7,31.5969c-.5-.4-.9-.9-1.4-1.2,.4,.3,.9,.8,1.4,1.2Z"/>
  <g>
    <polygon class="cls-4" points="42 89.8969 21 89.8969 37.5 110.8969 42 89.8969"/>
    <polygon class="cls-4" points="72 47.8969 51 47.8969 42.1 89.8969 63.1 89.8969 72 47.8969"/>
    <path class="cls-4" d="M126.1,89.9969h-21l-.1-.1c-1.4,5.9-4.6,11.1-9.3,14.9-4.5,3.8-10.2,6-16.2,6.1h-21l-8.9,42H28.6l16.5,21h21l8.9-42h21c5.9-.1,11.6-2.3,16.1-6.1,4.7-3.8,8-9,9.3-14.9v-.1l1-3.7,3.7-17.1Z"/>
    <path class="cls-4" d="M106.5,53.9969c-3.3-4.1-16.6-21-16.6-21,3.2,4.1,4.1,9.5,3,14.9l-8.9,42h21l4.5-21c1.1-5.4,.2-10.8-3-14.9Z"/>
    <path class="cls-4" d="M88.6,31.5969c.5,.5,.9,.9,1.3,1.4-.4-.5-.8-1-1.3-1.4Z"/>
  </g>
  <g id="Group_63" data-name="Group 63" transform="translate(0)">
    <g>
      <polygon class="cls-4" points="195.3 60.4969 192.7 47.8969 176.2 26.8969 189.1 89.8969 195.3 60.4969"/>
      <polygon class="cls-4" points="175.6 152.8969 154.6 152.8969 171.1 173.8969 192.1 173.8969 199.2 140.2969 189 89.8969 175.6 152.8969"/>
      <polygon class="cls-4" points="223.4 26.8969 210 89.8969 231 89.8969 239.9 47.8969 223.4 26.8969"/>
      <polygon class="cls-4" points="231.2 89.9969 231.2 90.0969 231 89.8969 217.6 152.8969 201.8 152.8969 218.3 173.8969 234.1 173.8969 246.7 114.6969 246.9 114.8969 248.6 106.9969 252.2 89.9969 231.2 89.9969"/>
    </g>
    <g>
      <polygon class="cls-4" points="277.2 41.7969 265.6 26.9969 256.7 68.9969 261.9 68.9969 277.2 41.7969"/>
      <polygon class="cls-4" points="307.7 100.4969 315.5 100.4969 315.5 77.8969 307.2 77.8969 324.1 47.8969 307.6 26.8969 278 79.4969 273.2 89.9969 295.5 89.9969 295.5 100.5969 299.8 100.5969 301.8 153.0969 280.8 153.0969 297.4 174.0969 318.4 174.0969 316 111.0969 307.7 100.4969"/>
      <polygon class="cls-4" points="259.7 152.9969 238.7 152.9969 255.2 173.9969 276.2 173.9969 280.7 152.9969 273.1 89.9969 259.7 152.9969"/>
    </g>
  </g>
  <g>
    <polygon class="cls-2" points="112.6 152.9969 133.6 152.9969 147 89.9969 126 89.9969 112.6 152.9969"/>
    <polygon class="cls-2" points="118.4 26.9969 105 89.9969 126 89.9969 139.4 26.9969 118.4 26.9969"/>
    <polygon class="cls-2" points="223.5 26.8969 202.5 26.8969 189.1 89.8969 176.2 26.8969 160.4 26.8969 147 89.8969 168 89.8969 154.6 152.8969 175.7 152.8969 189.1 89.8969 201.9 152.8969 217.7 152.8969 231.1 89.8969 210.1 89.8969 223.5 26.8969"/>
    <path class="cls-2" d="M84,89.7969l8.9-41.9c1.2-5.4,.2-10.8-3-14.9-3.3-4-8.3-6.3-13.5-6.2H34.4l-13.4,63h21l-13.4,63h21l8.9-42h21c5.9-.1,11.6-2.3,16.2-6.1,4.7-3.8,8-9,9.3-14.9h-21Zm-21,.1h-21l8.9-42h21l-8.9,42Z"/>
    <polygon class="cls-2" points="273.2 89.9969 280.8 152.9969 301.8 152.9969 299.4 89.9969 273.2 89.9969"/>
    <polygon class="cls-2" points="278 79.4969 307.7 26.9969 285.6 26.9969 262 68.9969 256.7 68.9969 265.6 26.9969 244.6 26.9969 231.2 89.9969 252.2 89.9969 238.8 152.9969 259.8 152.9969 273.2 89.9969 273.2 89.9969 278 79.4969"/>
  </g>
  <path id="Path_110" data-name="Path 110" class="cls-4" d="M433.5,69.1969l-12.9-15.2c7.4,10.5,11.4,23.1,11.4,36,0,34.9-28.5,63.1-63.6,63.1-16.2,0-31.8-6.1-43.7-17.2l-.1-.1c-.1-.1-.2-.1-.2-.2-.2-.2-.4-.4-.7-.6l-.1-.1,10.5,12.4c20.1,28.7,59.7,35.7,88.4,15.5,16.9-11.8,26.9-31.1,27-51.7,.1001-15.4-5.5999-30.4-15.9999-41.9Z"/>
  <g id="Group_78" data-name="Group 78" transform="translate(0 0)">
    <g id="Group_66" data-name="Group 66">
      <path id="Path_111" data-name="Path 111" class="cls-2" d="M304.7,89.9969c0-34.9,28.5-63.1,63.6-63.1s63.6,28.2,63.6,63.1-28.5,63.1-63.6,63.1-63.6-28.2-63.6-63.1"/>
    </g>
    <g id="Group_77" data-name="Group 77" transform="translate(17.085 16.929)">
      <g id="Group_67" data-name="Group 67">
        <path id="Path_112" data-name="Path 112" class="cls-4" d="M321.785,90.0259c-.2-25.7,20.4-46.7,46.1-47,25.7-.2,46.7,20.4,47,46.1,.3,25.7-20.4,46.7-46.1,47h-.4c-25.6,.2-46.5-20.5-46.6-46.1h0"/>
      </g>
      <g id="Group_76" data-name="Group 76" transform="translate(9.095 20.798)">
        <g id="Group_68" data-name="Group 68" transform="translate(16.694)">
          <path id="Path_113" data-name="Path 113" class="cls-2" d="M378.274,66.4239c.1,.2,.1,.4,.1,.5,.1,.7,0,1.5-.1,2.2-.2,.3-.5,.5-.9,.3-.4-.4-.3-1.6-1.2-1.2-.5,.8-.7,1.8-.5,2.8,.2,.8,.7,1.5,1.5,1.9,.4,.1,.8,.1,1.2,.1,1.4,.5,1.2,2.6,2.7,3.1,1.1,.4,2.3,.3,3.3-.3,.6-.2,.6,.2,.6,.6-.1,1.3-.5,2.5-1.2,3.5-.3,.6-.6,1.3-.7,2-.4,1.6-.2,3.3,.5,4.8,.7,.9,1.7,1.5,2.8,1.9,.6,.7-.5,1-.8,1.4-1.1,1.3-1.3,3.1-.7,4.7,.3,.6,1.1,1.5,.4,2.2-.9,1.5-2.2,2.8-3.7,3.6-.3,.3-.7,.5-1.1,.7-3.6,2.8-8,3.8-12.1,4.8-2.9,.4-7.7-.2-8.7-1.5s-1.2-1-4-1.7c-3.1-1-5.5-3.4-6.4-6.5-1.3-5.3-1.1-10.2-1.5-15.6,0-1.1-.4-2.7,.4-3.3,1.1-1.1,2.8-1.4,4.3-1,1.1,.2,2,1.5,2.8,.1,.1-1-1.7-2.3-2.9-2.4-1.4-.4-2.8,0-3.8,1l-.5,1c-.1-2.9,.4-5.8,1.6-8.4,.3-1,.9-1.8,1.6-2.6,.9-.5,.9-.4,1-.3,.3,0,.2,.5,.1,.9-.4,1.1-1.1,2.4-1.8,2.7l-.3,.1c-.2,.1-.3,.4-.2,.6,0,.1,.1,.1,.1,.1,.6,.5,1.5,.6,2.2,.1,1.6-.8,2.8-2,3.7-3.5,.8-.4,1.6,1.1,1.8,1.9,.1,.6-.1,1.3-.5,1.7-1,.7-2.4-1.3-2.7,.6,.1,.9,.6,1.8,1.5,2.2,1.5,.8,3.3,.9,4.8,.1,1.7-1,2.9-2.6,3.3-4.6,1.1,1.1-1.7,3.6,.7,3,1.3-.6,2.2-1.7,2.6-3.1,.4,0,.4,1.3,.1,1.9-.3,.2-.7,.7-.4,1.2,.4,.5,.9,0,1.4-.1,.5-.3,1.1-.9,1.5-1.1,.3-.1,0,.9,.5,1,1.8-.6,3.2-2.1,3.7-3.9,.1-.5,.3-1.2,.5-1.2,.9-.3,1.9-.1,2.8-.9,0,.1,.5,1.6,.6,1.9"/>
        </g>
        <g id="Group_69" data-name="Group 69" transform="translate(18.521 9.256)">
          <path id="Path_114" data-name="Path 114" class="cls-4" d="M380.801,78.6799c.1,.2,0,.5-.2,.6h-.1l-.5-.1c-1.5-2.3-4.2-3.5-6.9-3.1-1.4-.1-2.4,1.3-3.9,1-.4-.3-.3-1-.1-1.4,1.9-1.7,4.5-2.2,6.9-1.3,1.8,.9,3.9,2.1,4.8,4.3m-22.1,2.3c.9,1.1,1.2,2.5,.9,3.8-.1,.4-.5,.6-.9,.5-.6,.9-1.4,1.6-2.4,1.9-1.1,.1-2.6,0-3.1-1.3-.6-.8-.8-1.9-.3-2.9,.1-.4,.6-.9,.4-1-.7,.4-1.2,1.1-1.3,1.9-.1,.9,.4,2-.1,2.1-1.5-.1-.9-3.6-2.4-4.4-.3-.4,.3-.5,.7-.7,1.6,.2,2.6-2,4.3-1.9,1.6,.2,3.1,.8,4.2,2m19.3,1.2c.6,1.4,3-1.1,2.1,1.3-.3,.7-1.1,1.3-1.6,1.1-.6-.4-1.2-1-1.7-1.6l-.6-.7c-.5-.6-1.7-1.1-.4,.2l1.6,2.8c.1,.2,.1,.4-.1,.5-.1,.1-.2,.1-.3,.1-.5-.1-1-.1-1.5,.2-.9,.9-2.2,1.3-3.4,.9-1-.5-1.7-1.5-1.8-2.7,.3-1.3,.2-1.3,.1-1-1.1,1.4,.1,3-.3,3.1-1.6-.1-1-2.4-2.1-3.3-.3-.5-.2-1.2,.1-1.7,1.2-1.3,3-.5,4.4-1.7,2.0999-1.2,4.0999,.8,5.4999,2.5m-17.7,5.1c.3,1.1-.1,2.2-.9,3-.3,.7-.4,1.5-.4,2.3-.1,.3,1.7,.3,1.4,1.3-.7,.3-1.5,.3-2.2,0-.5-.2-.8-.7-.7-1.2,.5-1.3,.4-2.9,1.7-3.9,.3-.4,.2-2.3,1.1-1.5m3.7,6c0,.2-.1,.4-.2,.5-.6,.2-1.2,.1-1.8-.1-.1-.3-.1-.6-.1-.9,.6-.5,1.4,0,2.1,.5m3.5,6c-1.8,3-3.3,3.6-5.2,3.2-1.6-.1-2.6-2.6-3.8-3.1-.2-.2-.2-.4-.1-.6,.1-.3,1.2-.3,1.6-.6,.6-.6,1.2-1.6,2.2-1.2,.4,.4,1.1,1.6,1.3,.4,.9-.7,2.2,.9,2.7,1l1.4,.3c.1-.2,.1,.5-.1,.6"/>
        </g>
        <g id="Group_70" data-name="Group 70" transform="translate(22.116 38.665)">
          <path id="Path_115" data-name="Path 115" class="cls-2" d="M386.496,108.5889c0,1.3-.5,2.5-1.4,3.4l-.2,.3c-1.6,1.8-3.6,3.2-5.8,4-.3,0-.5,.2-.9,.2-2.9,.4-6.2,.3-8.1-2.2-1-1.2-2.2-3.3-1.7-4q.1-.1,.2-.1c4.9-1.3,9.6-3.6,13.6-6.7,.2-.1,.5-.2,.5-.1,2.3,.5,3.9,3.5,3.8,5.2m-26.5-1.6c1,.5,2,.6,2.8,1.4,.4,.4,.6,1,.3,1.5-1.4,2.1-3.3,3.7-5.5,4.8-1.2,.6-2.5,.5-3.6-.1-1.2-.7-1.1-2.1-.7-3.3,.5-1.5,1.4-2.9,2.4-4,.5-.4,.9-1.1,1.6-1.2,.9,.2,1.8,.5,2.7,.9"/>
        </g>
        <g id="Group_71" data-name="Group 71" transform="translate(0 43.884)">
          <path id="Path_116" data-name="Path 116" class="cls-2" d="M351.28,108.9079c-.7,1.9-1.3,5,.2,6.8,1.8,1.9,4.6,2,6.9,1.3,1.3-.5,2.5-1,3.7-1.6,.5,.9,1,2,2,2.1,1.1,.1,2.1-.5,2.4-1.5,0,0,.2-.8,.5-.8,3.8,3.7,9.5,4.7,14.4,2.6,2.1-.8,4.1-2.1,5.6-3.8,1.9-1.5,3-4.7,6.2-3.8,4.1,1,7.6,3.5,9.8,7.1,.5,.7,.8,1.5,1.2,2.3-6,7.1-13.9,12.3-22.9,14.9,.1-1.4,.4-2.7,.9-4,.5-2.1,2-6,1.9-6.2s-.1-.6-.5-.5c-.6,.3-1,.9-1.2,1.5-1.8,3.1-2.6,6.5-3.6,9.9-3.5,.8-7,1.2-10.5,1.2-10.1,0-20-3.2-28.1-9.3,.9-1.3,1.7-2.6,2.7-3.8,1.2-1.8,3.1-3.4,4.5-5.2,.1-.1,.2-.3-.3-.3l-.2-.1-.2,.1c-.3,0-2.3,2.6-3.7,3.3q-.1,0-.1-.1c.2-2.1,2.3-5.5,2-5.7-.9-1-1.7,1.1-1.9,1.5-1.1,2-2.1,4.3-3.4,6.4-.4,.8-.8,1.7-1.2,2.6-2.8-2.3-5.3-4.9-7.4-7.9l2-2c4.9-3.9,10.7-7.4,17.2-7,.4-.3,1.1-.4,1.1,0"/>
        </g>
        <g id="Group_72" data-name="Group 72" transform="translate(32.709 49.325)">
          <path id="Path_117" data-name="Path 117" class="cls-2" d="M364.489,114.5489c.1,.3,0,.7-.5,.6l-.3-.3c-.1-.3,0-.7,.3-.9,.4,0,.5,.4,.5,.6"/>
        </g>
        <g id="Group_73" data-name="Group 73" transform="translate(25.853 61.983)">
          <path id="Path_118" data-name="Path 118" class="cls-4" d="M360.633,127.7069c.4,.6,.6,1.3,.4,2-.3,.8-1,1.4-1.8,1.6l-.7-.1c-.7-.4-1.6-.9-1.7-1.8-.1-.5-.1-1,.1-1.5,.3-.7,.9-1.1,1.6-1.3,.9,0,1.4,.6,2.1,1.1"/>
        </g>
        <g id="Group_74" data-name="Group 74" transform="translate(24.455 16.248)">
          <path id="Path_119" data-name="Path 119" class="cls-2" d="M358.535,82.5719c-.5-1-1.6-1.6-2.8-1.6,1.2-.2,2.4,.4,2.8,1.6m16.3,.8c.2,.4,.1,.8-.3,1,0,0-.1,0-.1,.1-.3,.2-.5,0-.8-.1-.2-.2-.4-.9,0-1.2,.2-.3,.6-.5,.9-.3,.1,.1,.2,.3,.3,.5m-18.2-.2c.3,.3,.5,.8,.3,1.2-.1,.3-.3,.5-.6,.4-.4-.1-1-.3-1-1,0-.4,.2-.7,.5-.9,.3,.1,.6,.2,.8,.3m6.3,16.9c.3,0,.9-.4,1.1,.1,.1,.9-1.7,.4-1.9,.2-.3-.1-1.3-.3-.6-.9,.2-.2,.8,.9,1.4,.6"/>
        </g>
        <g id="Group_75" data-name="Group 75" transform="translate(27.007 63.242)">
          <path id="Path_120" data-name="Path 120" class="cls-2" d="M358.887,128.2659c-.1,.3-.1,.7-.4,1-.2,.1-.4-.1-.5-.3,0-.4,0-.8,.4-1,.2-.1,.4,0,.5,.3h0"/>
        </g>
      </g>
    </g>
  </g>
  <path id="Path_124" data-name="Path 124" d="M549.2,48.1969l-8.9,42h21l8.9-42h-21Z"/>
  <path id="Path_125" data-name="Path 125" class="cls-4" d="M604.8,54.2969c-3.2-4.1-16.5-21-16.5-21,3.2,4.1,4.1,9.5,3,14.9l-8.9,42h21l4.5-21c1.0001-5.4,.1-10.8-3.1-14.9Z"/>
  <g>
    <path class="cls-4" d="M540.3,90.1969h-21c-1.4,5.9-4.6,11.1-9.3,14.9-4.5,3.8-10.2,6-16.2,6.1h-21l-8.9,42h-21l16.5,21h21l8.9-42h21c5.9-.1,11.6-2.3,16.2-6.1,4.7-3.8,8-9,9.3-14.9h0l4.5-21Z"/>
    <polygon class="cls-4" points="486.3 48.1969 465.3 48.1969 456.4 90.1969 477.4 90.1969 486.3 48.1969"/>
    <path class="cls-4" d="M523.8,69.1969c1.1-5.4,.2-10.8-3-14.9-3.3-4.1-16.6-21-16.6-21,3.3,4.2,4.2,9.5,3,14.9l-8.9,42h21l4.5-21Z"/>
    <polygon class="cls-4" points="444.4 119.9969 464.5 119.9969 464.5 97.3969 454.8 97.3969 456.3 90.1969 435.3 90.1969 444.4 101.7969 444.4 119.9969"/>
  </g>
  <path id="Path_133" data-name="Path 133" class="cls-4" d="M654.2,48.1969l-16.4-21.1-13.4,63.1h21l8.8-42Z"/>
  <path class="cls-4" d="M624.3,90.1969h-21l-8.9,42-4.1,20.9-21.4,.1h-21c-5.2,.2-20.5,.4-20.5,.4l14.2,20.6,22.9,.1h42.8l3.7-21.1,8.9-42-.1-.1,.5-2.5,3.9999-18.4Z"/>
  <polygon points="547.9 153.1969 557.5 108.5969 578.5 108.5969 568.9 153.1969 547.9 153.1969"/>
  <polygon class="cls-1" points="633.2 48.1969 624.3 90.1969 624.4 90.1969 633.3 48.1969 633.2 48.1969"/>
  <g>
    <path class="cls-4" d="M687,90.2969h0v-.3l-66.7,20.3,33.9-62.1h-20.9l-13.3,62.1-2.2,.7,13.4,21.1h42.4l-4.4,13.6-58.7,8.4,16.3,20h59.2c5.5,0,10-4,10.7-9.4l9.1-74.4h-18.8Z"/>
    <path class="cls-4" d="M679,27.2969s-2.9,15.3-4.1,20.7l-8.9,42h21l8.5-39.7-16.5-23Z"/>
  </g>
  <polygon class="cls-2" points="624.4 90.1969 619.8 111.1969 640.8 111.1969 645.3 90.1969 624.4 90.1969"/>
  <g>
    <path class="cls-2" d="M498.3,90.0969l8.9-41.9c1.2-5.4,.2-10.8-3-14.9-3.3-4-8.3-6.3-13.5-6.2h-42l-13.4,63h21l-13.4,63h21l8.9-42h21c5.9-.1,11.6-2.3,16.2-6.1,4.7-3.8,8-9,9.3-14.9h-21Zm-21,.1h-21l8.9-42h21l-8.9,42Z"/>
    <path class="cls-2" d="M637.8,27.0969l-19.4-.2-15.1,63.3h-21l8.9-42c1.2-5.4,.2-10.7-3-14.9-3.3-4-8.3-6.3-13.5-6.2h-21c-5.9,.1-11.6,2.3-16.2,6.2-4.7,3.8-8,9-9.3,14.9l-8.9,42h21l-8.9,42c-1.1,5.4-4,21.4-4,21.4,0,0,15.3-.3,20.5-.5h21c5.9-.1,21.4,0,21.4,0,0,0,2.8-15.1,4.1-20.9l8.9-42h21.1l13.4-63.1Z"/>
    <path class="cls-2" d="M666.4,90.3969v-.3l.7-3.3,12.7-59.8-21-.2-12.9,60.6-.8,3-20.8,.1-4.6,20.9,43.1,.1-3.1,20.4h-44.4l-4.7,22.2h42l15.2,.3c5.3,.1,10-3.8,10.8-9.1l5.2-33.1,3.1-21.9-20.5,.1Z"/>
  </g>
  <polygon class="cls-4" points="540.3 90.1969 549.2 48.1969 570.2 48.1969 561.3 90.1969 540.3 90.1969"/>
  <path id="Path_121" data-name="Path 121" class="cls-4" d="M548.3,153.2969h21l8.9-42h-21l-8.9,42Z"/>
</svg>